<?xml version="1.0" standalone="no"?><svg xmlns="http://www.w3.org/2000/svg" viewBox="0 0 1440 320"><path fill="#71767E" fill-opacity="1" d="M0,32L0,320L62.6,320L62.6,32L125.2,32L125.2,128L187.8,128L187.8,224L250.4,224L250.4,256L313,256L313,192L375.7,192L375.7,64L438.3,64L438.3,64L500.9,64L500.9,224L563.5,224L563.5,0L626.1,0L626.1,224L688.7,224L688.7,320L751.3,320L751.3,192L813.9,192L813.9,96L876.5,96L876.5,288L939.1,288L939.1,192L1001.7,192L1001.7,192L1064.3,192L1064.3,160L1127,160L1127,160L1189.6,160L1189.6,32L1252.2,32L1252.2,256L1314.8,256L1314.8,192L1377.4,192L1377.4,160L1440,160L1440,0L1377.4,0L1377.4,0L1314.8,0L1314.8,0L1252.2,0L1252.2,0L1189.6,0L1189.6,0L1127,0L1127,0L1064.3,0L1064.3,0L1001.7,0L1001.7,0L939.1,0L939.1,0L876.5,0L876.5,0L813.9,0L813.9,0L751.3,0L751.3,0L688.7,0L688.7,0L626.1,0L626.1,0L563.5,0L563.5,0L500.9,0L500.9,0L438.3,0L438.3,0L375.7,0L375.7,0L313,0L313,0L250.4,0L250.4,0L187.8,0L187.8,0L125.2,0L125.2,0L62.6,0L62.6,0L0,0L0,0Z"></path></svg>