<?xml version="1.0" standalone="no"?><svg xmlns="http://www.w3.org/2000/svg" viewBox="0 0 1440 320"><path fill="#71767E" fill-opacity="1" d="M0,128L62.6,256L125.2,256L187.8,160L250.4,32L313,192L375.7,64L438.3,160L500.9,192L563.5,256L626.1,0L688.7,64L751.3,224L813.9,224L876.5,128L939.1,128L1001.7,224L1064.3,128L1127,192L1189.6,64L1252.2,256L1314.8,224L1377.4,32L1440,192L1440,0L1377.4,0L1314.8,0L1252.2,0L1189.6,0L1127,0L1064.3,0L1001.7,0L939.1,0L876.5,0L813.9,0L751.3,0L688.7,0L626.1,0L563.5,0L500.9,0L438.3,0L375.7,0L313,0L250.4,0L187.8,0L125.2,0L62.6,0L0,0Z"></path></svg>