<?xml version="1.0" standalone="no"?><svg xmlns="http://www.w3.org/2000/svg" viewBox="0 0 1440 320"><path fill="#7ca982" fill-opacity="1" d="M0,224L12.6,229.3C25.3,235,51,245,76,224C101.1,203,126,149,152,128C176.8,107,202,117,227,106.7C252.6,96,278,64,303,96C328.4,128,354,224,379,261.3C404.2,299,429,277,455,245.3C480,213,505,171,531,160C555.8,149,581,171,606,197.3C631.6,224,657,256,682,245.3C707.4,235,733,181,758,176C783.2,171,808,213,834,202.7C858.9,192,884,128,909,112C934.7,96,960,128,985,144C1010.5,160,1036,160,1061,144C1086.3,128,1112,96,1137,106.7C1162.1,117,1187,171,1213,181.3C1237.9,192,1263,160,1288,165.3C1313.7,171,1339,213,1364,202.7C1389.5,192,1415,128,1427,96L1440,64L1440,0L1427.4,0C1414.7,0,1389,0,1364,0C1338.9,0,1314,0,1288,0C1263.2,0,1238,0,1213,0C1187.4,0,1162,0,1137,0C1111.6,0,1086,0,1061,0C1035.8,0,1011,0,985,0C960,0,935,0,909,0C884.2,0,859,0,834,0C808.4,0,783,0,758,0C732.6,0,707,0,682,0C656.8,0,632,0,606,0C581.1,0,556,0,531,0C505.3,0,480,0,455,0C429.5,0,404,0,379,0C353.7,0,328,0,303,0C277.9,0,253,0,227,0C202.1,0,177,0,152,0C126.3,0,101,0,76,0C50.5,0,25,0,13,0L0,0Z"></path></svg>